# xmcd
#
# Track frame offsets:
#	150
#	14550
#	29475
#	43575
#	58575
#	83850
#	98550
#	113025
#	129150
#	145575
#	160575
#	176775
#	191850
#	207075
#
# Disc length: 2971
#
# Revision: 1
# Processed by: cddbd v1.5.1PL0 Copyright (c) Steve Scherf et al.
# Submitted via: ExactAudioCopy v0.95a4
# Normalized: r0:TRMNUM
#
DISCID=b60b990e
DTITLE=未知艺术家 - LEMON TREE-柠檬树
DYEAR=2003
DGENRE=Country
TTITLE0=SAVE YOUR KISSER FOR ME-把你的吻留给我
TTITLE1=VENUS-维纳斯
TTITLE2=PRETTY WOMAN-漂亮宝贝
TTITLE3=I DON'T LIKE TO SLEEP ALONE-孤枕难眠
TTITLE4=UNICORN SONG-独角兽之歌
TTITLE5=MONDAY MORNING-星期一早晨
TTITLE6=YOUNG LOVE-稚爱
TTITLE7=TAMMY-汤米
TTITLE8=CHANGING PARTNER-交换舞伴
TTITLE9=LOVE IS BLUE-爱是忧郁
TTITLE10=LET IT BE ME-归我所有
TTITLE11=ARE YOU LONESOME TONIGHT-今晚你寂寞吗
TTITLE12=LEMON TREE-柠檬树
TTITLE13=THE END OF THE WORLD-世界末日
EXTD=
EXTT0=
EXTT1=
EXTT2=
EXTT3=
EXTT4=
EXTT5=
EXTT6=
EXTT7=
EXTT8=
EXTT9=
EXTT10=
EXTT11=
EXTT12=
EXTT13=
PLAYORDER=
